<svg width="22" height="22" viewBox="0 0 22 22" fill="none" xmlns="http://www.w3.org/2000/svg">
<path d="M11 4.72949C8.74791 4.72949 6.91568 6.56172 6.91568 8.8138C6.91568 11.0659 8.74791 12.8981 11 12.8981C13.2521 12.8981 15.0843 11.0659 15.0843 8.8138C15.0843 6.56172 13.2521 4.72949 11 4.72949ZM11 11.1784C9.69614 11.1784 8.63537 10.1176 8.63537 8.8138C8.63537 7.50996 9.69614 6.44919 11 6.44919C12.3038 6.44919 13.3646 7.50996 13.3646 8.8138C13.3646 10.1176 12.3038 11.1784 11 11.1784Z" fill="black"/>
<path d="M11 0C6.14019 0 2.18646 3.95377 2.18646 8.81354V9.05717C2.18646 11.515 3.59558 14.3791 6.3748 17.5698C8.38952 19.8829 10.3761 21.4958 10.4596 21.5634L11 22L11.5404 21.5634C11.6239 21.4958 13.6105 19.883 15.6252 17.5699C18.4044 14.3791 19.8135 11.515 19.8135 9.05721V8.81358C19.8135 3.95377 15.8598 0 11 0ZM18.0938 9.05721C18.0938 13.2108 12.742 18.2388 11 19.7651C9.25749 18.2383 3.90616 13.2105 3.90616 9.05721V8.81358C3.90616 4.90205 7.08847 1.71974 11 1.71974C14.9115 1.71974 18.0938 4.90205 18.0938 8.81358V9.05721Z" fill="black"/>
</svg>
