<svg width="22" height="22" viewBox="0 0 22 22" fill="none" xmlns="http://www.w3.org/2000/svg">
<path d="M3.61616 21H17.3838C18.8271 21 20 19.7517 20 18.2155V4.33998C20 2.80387 18.8271 1.55553 17.3838 1.55553H16.3462V0.777763C16.3462 0.349981 16.0173 0 15.6153 0C15.2134 0 14.8846 0.349981 14.8846 0.777763V1.55553H6.11541V0.777763C6.11541 0.349981 5.78652 0 5.38459 0C4.98266 0 4.65384 0.349981 4.65384 0.777763V1.55553H3.61616C2.17289 1.55553 1 2.80387 1 4.33998V18.2155C1 19.7517 2.17289 21 3.61616 21ZM2.46157 4.33998C2.46157 3.66333 2.98041 3.11112 3.61616 3.11112H4.65384V3.88888C4.65384 4.31666 4.98266 4.66665 5.38459 4.66665C5.78652 4.66665 6.11535 4.31666 6.11535 3.88888V3.11112H14.8846V3.88888C14.8846 4.31666 15.2134 4.66665 15.6153 4.66665C16.0173 4.66665 16.3461 4.31666 16.3461 3.88888V3.11112H17.3838C18.0195 3.11112 18.5384 3.66333 18.5384 4.33998V6.61112H2.46157V4.33998ZM2.46157 8.16665H18.5385V18.2155C18.5385 18.8922 18.0197 19.4444 17.3839 19.4444H3.61616C2.98041 19.4444 2.46157 18.8922 2.46157 18.2155V8.16665Z" fill="black"/>
</svg>
